<svg version="1.0"
    xmlns="http://www.w3.org/2000/svg"
    width="48.000000pt"
    height="48.000000pt"
    viewBox="0 0 48.000000 48.000000"
    preserveAspectRatio="xMidYMid meet">

    <g transform="translate(0.000000,48.000000) scale(0.100000,-0.100000)"
        fill="#088A08"
        stroke="none">
        <path d="M0 240 l0 -240 240 0 240 0 0 240 0 240 -240 0 -240 0 0 -240z m210
65 l0 -35 25 16 c23 15 27 15 50 0 22 -15 25 -23 25 -81 0 -63 -1 -65 -25 -65
-24 0 -25 3 -25 55 0 47 -3 55 -19 55 -23 0 -31 -19 -31 -71 0 -35 -3 -39 -25
-39 l-25 0 0 100 0 100 25 0 c22 0 25 -4 25 -35z"/>
    </g>
</svg>
